<mxfile host="app.diagrams.net" modified="2023-11-07T16:48:08.263Z" agent="Mozilla/5.0 (Windows NT 10.0; Win64; x64; rv:109.0) Gecko/20100101 Firefox/119.0" etag="t7-2bhl_GhiclxVTSlNV" version="22.0.8" type="device">
  <diagram name="Page-1" id="vXef-eU8umpROAJgKkV4">
    <mxGraphModel dx="2899" dy="2217" grid="1" gridSize="10" guides="1" tooltips="1" connect="1" arrows="1" fold="1" page="1" pageScale="1" pageWidth="850" pageHeight="1100" math="0" shadow="0">
      <root>
        <mxCell id="0" />
        <mxCell id="1" parent="0" />
        <mxCell id="aRpeAPTy4dod1xrnkWrR-1" value="Store" style="shape=table;startSize=30;container=1;collapsible=1;childLayout=tableLayout;fixedRows=1;rowLines=0;fontStyle=1;align=center;resizeLast=1;rounded=0;" parent="1" vertex="1">
          <mxGeometry x="1110" y="50" width="380" height="110" as="geometry" />
        </mxCell>
        <mxCell id="aRpeAPTy4dod1xrnkWrR-2" style="shape=partialRectangle;collapsible=0;dropTarget=0;pointerEvents=0;fillColor=none;points=[[0,0.5],[1,0.5]];portConstraint=eastwest;top=0;left=0;right=0;bottom=0;rounded=0;" parent="aRpeAPTy4dod1xrnkWrR-1" vertex="1">
          <mxGeometry y="30" width="380" height="40" as="geometry" />
        </mxCell>
        <mxCell id="aRpeAPTy4dod1xrnkWrR-3" value="PK" style="shape=partialRectangle;overflow=hidden;connectable=0;fillColor=none;top=0;left=0;bottom=0;right=0;fontStyle=1;rounded=0;" parent="aRpeAPTy4dod1xrnkWrR-2" vertex="1">
          <mxGeometry width="30" height="40" as="geometry">
            <mxRectangle width="30" height="40" as="alternateBounds" />
          </mxGeometry>
        </mxCell>
        <mxCell id="aRpeAPTy4dod1xrnkWrR-4" value="StoreID NUMBER(2)" style="shape=partialRectangle;overflow=hidden;connectable=0;fillColor=none;top=0;left=0;bottom=0;right=0;align=left;spacingLeft=6;fontStyle=5;rounded=0;" parent="aRpeAPTy4dod1xrnkWrR-2" vertex="1">
          <mxGeometry x="30" width="210" height="40" as="geometry">
            <mxRectangle width="210" height="40" as="alternateBounds" />
          </mxGeometry>
        </mxCell>
        <mxCell id="aRpeAPTy4dod1xrnkWrR-5" value="" style="shape=partialRectangle;overflow=hidden;connectable=0;fillColor=none;top=0;left=0;bottom=0;right=0;align=left;spacingLeft=6;rounded=0;" parent="aRpeAPTy4dod1xrnkWrR-2" vertex="1">
          <mxGeometry x="240" width="140" height="40" as="geometry">
            <mxRectangle width="140" height="40" as="alternateBounds" />
          </mxGeometry>
        </mxCell>
        <mxCell id="Ai8oRI5nSIV9bpfUyO6s-9" style="shape=partialRectangle;collapsible=0;dropTarget=0;pointerEvents=0;fillColor=none;points=[[0,0.5],[1,0.5]];portConstraint=eastwest;top=0;left=0;right=0;bottom=0;fontStyle=0;rounded=0;" parent="aRpeAPTy4dod1xrnkWrR-1" vertex="1">
          <mxGeometry y="70" width="380" height="40" as="geometry" />
        </mxCell>
        <mxCell id="Ai8oRI5nSIV9bpfUyO6s-10" value="" style="shape=partialRectangle;overflow=hidden;connectable=0;fillColor=none;top=0;left=0;bottom=0;right=0;fontStyle=1;rounded=0;" parent="Ai8oRI5nSIV9bpfUyO6s-9" vertex="1">
          <mxGeometry width="30" height="40" as="geometry">
            <mxRectangle width="30" height="40" as="alternateBounds" />
          </mxGeometry>
        </mxCell>
        <mxCell id="Ai8oRI5nSIV9bpfUyO6s-11" value="Name VARCHAR(20)" style="shape=partialRectangle;overflow=hidden;connectable=0;fillColor=none;top=0;left=0;bottom=0;right=0;align=left;spacingLeft=6;fontStyle=0;rounded=0;" parent="Ai8oRI5nSIV9bpfUyO6s-9" vertex="1">
          <mxGeometry x="30" width="210" height="40" as="geometry">
            <mxRectangle width="210" height="40" as="alternateBounds" />
          </mxGeometry>
        </mxCell>
        <mxCell id="Ai8oRI5nSIV9bpfUyO6s-12" value="NOT NULL" style="shape=partialRectangle;overflow=hidden;connectable=0;fillColor=none;top=0;left=0;bottom=0;right=0;align=left;spacingLeft=6;rounded=0;" parent="Ai8oRI5nSIV9bpfUyO6s-9" vertex="1">
          <mxGeometry x="240" width="140" height="40" as="geometry">
            <mxRectangle width="140" height="40" as="alternateBounds" />
          </mxGeometry>
        </mxCell>
        <mxCell id="aRpeAPTy4dod1xrnkWrR-6" value="Products" style="shape=table;startSize=30;container=1;collapsible=1;childLayout=tableLayout;fixedRows=1;rowLines=0;fontStyle=1;align=center;resizeLast=1;rounded=0;" parent="1" vertex="1">
          <mxGeometry x="50" y="43" width="410" height="124" as="geometry" />
        </mxCell>
        <mxCell id="aRpeAPTy4dod1xrnkWrR-7" value="" style="shape=partialRectangle;collapsible=0;dropTarget=0;pointerEvents=0;fillColor=none;points=[[0,0.5],[1,0.5]];portConstraint=eastwest;top=0;left=0;right=0;bottom=1;rounded=0;" parent="aRpeAPTy4dod1xrnkWrR-6" vertex="1">
          <mxGeometry y="30" width="410" height="30" as="geometry" />
        </mxCell>
        <mxCell id="aRpeAPTy4dod1xrnkWrR-8" value="PK" style="shape=partialRectangle;overflow=hidden;connectable=0;fillColor=none;top=0;left=0;bottom=0;right=0;fontStyle=1;rounded=0;" parent="aRpeAPTy4dod1xrnkWrR-7" vertex="1">
          <mxGeometry width="30" height="30" as="geometry">
            <mxRectangle width="30" height="30" as="alternateBounds" />
          </mxGeometry>
        </mxCell>
        <mxCell id="aRpeAPTy4dod1xrnkWrR-9" value="ProductID NUMBER(2)" style="shape=partialRectangle;overflow=hidden;connectable=0;fillColor=none;top=0;left=0;bottom=0;right=0;align=left;spacingLeft=6;fontStyle=5;rounded=0;" parent="aRpeAPTy4dod1xrnkWrR-7" vertex="1">
          <mxGeometry x="30" width="220" height="30" as="geometry">
            <mxRectangle width="220" height="30" as="alternateBounds" />
          </mxGeometry>
        </mxCell>
        <mxCell id="aRpeAPTy4dod1xrnkWrR-10" value="" style="shape=partialRectangle;overflow=hidden;connectable=0;fillColor=none;top=0;left=0;bottom=0;right=0;align=left;spacingLeft=6;fontStyle=0;rounded=0;" parent="aRpeAPTy4dod1xrnkWrR-7" vertex="1">
          <mxGeometry x="250" width="160" height="30" as="geometry">
            <mxRectangle width="160" height="30" as="alternateBounds" />
          </mxGeometry>
        </mxCell>
        <mxCell id="aRpeAPTy4dod1xrnkWrR-11" value="" style="shape=partialRectangle;collapsible=0;dropTarget=0;pointerEvents=0;fillColor=none;points=[[0,0.5],[1,0.5]];portConstraint=eastwest;top=0;left=0;right=0;bottom=0;rounded=0;" parent="aRpeAPTy4dod1xrnkWrR-6" vertex="1">
          <mxGeometry y="60" width="410" height="32" as="geometry" />
        </mxCell>
        <mxCell id="aRpeAPTy4dod1xrnkWrR-12" value="" style="shape=partialRectangle;overflow=hidden;connectable=0;fillColor=none;top=0;left=0;bottom=0;right=0;rounded=0;" parent="aRpeAPTy4dod1xrnkWrR-11" vertex="1">
          <mxGeometry width="30" height="32" as="geometry">
            <mxRectangle width="30" height="32" as="alternateBounds" />
          </mxGeometry>
        </mxCell>
        <mxCell id="aRpeAPTy4dod1xrnkWrR-13" value="Name VARCHAR2(30)" style="shape=partialRectangle;overflow=hidden;connectable=0;fillColor=none;top=0;left=0;bottom=0;right=0;align=left;spacingLeft=6;rounded=0;" parent="aRpeAPTy4dod1xrnkWrR-11" vertex="1">
          <mxGeometry x="30" width="220" height="32" as="geometry">
            <mxRectangle width="220" height="32" as="alternateBounds" />
          </mxGeometry>
        </mxCell>
        <mxCell id="aRpeAPTy4dod1xrnkWrR-14" value="NOT NULL" style="shape=partialRectangle;overflow=hidden;connectable=0;fillColor=none;top=0;left=0;bottom=0;right=0;align=left;spacingLeft=6;rounded=0;" parent="aRpeAPTy4dod1xrnkWrR-11" vertex="1">
          <mxGeometry x="250" width="160" height="32" as="geometry">
            <mxRectangle width="160" height="32" as="alternateBounds" />
          </mxGeometry>
        </mxCell>
        <mxCell id="aRpeAPTy4dod1xrnkWrR-15" value="" style="shape=partialRectangle;collapsible=0;dropTarget=0;pointerEvents=0;fillColor=none;points=[[0,0.5],[1,0.5]];portConstraint=eastwest;top=0;left=0;right=0;bottom=0;rounded=0;" parent="aRpeAPTy4dod1xrnkWrR-6" vertex="1">
          <mxGeometry y="92" width="410" height="32" as="geometry" />
        </mxCell>
        <mxCell id="aRpeAPTy4dod1xrnkWrR-16" value="" style="shape=partialRectangle;overflow=hidden;connectable=0;fillColor=none;top=0;left=0;bottom=0;right=0;rounded=0;" parent="aRpeAPTy4dod1xrnkWrR-15" vertex="1">
          <mxGeometry width="30" height="32" as="geometry">
            <mxRectangle width="30" height="32" as="alternateBounds" />
          </mxGeometry>
        </mxCell>
        <mxCell id="aRpeAPTy4dod1xrnkWrR-17" value="Category VARCHAR2(20)" style="shape=partialRectangle;overflow=hidden;connectable=0;fillColor=none;top=0;left=0;bottom=0;right=0;align=left;spacingLeft=6;rounded=0;" parent="aRpeAPTy4dod1xrnkWrR-15" vertex="1">
          <mxGeometry x="30" width="220" height="32" as="geometry">
            <mxRectangle width="220" height="32" as="alternateBounds" />
          </mxGeometry>
        </mxCell>
        <mxCell id="aRpeAPTy4dod1xrnkWrR-18" value="NOT NULL" style="shape=partialRectangle;overflow=hidden;connectable=0;fillColor=none;top=0;left=0;bottom=0;right=0;align=left;spacingLeft=6;rounded=0;" parent="aRpeAPTy4dod1xrnkWrR-15" vertex="1">
          <mxGeometry x="250" width="160" height="32" as="geometry">
            <mxRectangle width="160" height="32" as="alternateBounds" />
          </mxGeometry>
        </mxCell>
        <mxCell id="aRpeAPTy4dod1xrnkWrR-19" value="Orders" style="shape=table;startSize=30;container=1;collapsible=1;childLayout=tableLayout;fixedRows=1;rowLines=0;fontStyle=1;align=center;resizeLast=1;rounded=0;" parent="1" vertex="1">
          <mxGeometry x="810" y="330" width="410" height="150" as="geometry" />
        </mxCell>
        <mxCell id="aRpeAPTy4dod1xrnkWrR-20" value="" style="shape=partialRectangle;collapsible=0;dropTarget=0;pointerEvents=0;fillColor=none;points=[[0,0.5],[1,0.5]];portConstraint=eastwest;top=0;left=0;right=0;bottom=1;rounded=0;" parent="aRpeAPTy4dod1xrnkWrR-19" vertex="1">
          <mxGeometry y="30" width="410" height="30" as="geometry" />
        </mxCell>
        <mxCell id="aRpeAPTy4dod1xrnkWrR-21" value="PK" style="shape=partialRectangle;overflow=hidden;connectable=0;fillColor=none;top=0;left=0;bottom=0;right=0;fontStyle=1;rounded=0;" parent="aRpeAPTy4dod1xrnkWrR-20" vertex="1">
          <mxGeometry width="30" height="30" as="geometry">
            <mxRectangle width="30" height="30" as="alternateBounds" />
          </mxGeometry>
        </mxCell>
        <mxCell id="aRpeAPTy4dod1xrnkWrR-22" value="OrderID NUMBER(2)" style="shape=partialRectangle;overflow=hidden;connectable=0;fillColor=none;top=0;left=0;bottom=0;right=0;align=left;spacingLeft=6;fontStyle=5;rounded=0;" parent="aRpeAPTy4dod1xrnkWrR-20" vertex="1">
          <mxGeometry x="30" width="220" height="30" as="geometry">
            <mxRectangle width="220" height="30" as="alternateBounds" />
          </mxGeometry>
        </mxCell>
        <mxCell id="aRpeAPTy4dod1xrnkWrR-23" value="" style="shape=partialRectangle;overflow=hidden;connectable=0;fillColor=none;top=0;left=0;bottom=0;right=0;align=left;spacingLeft=6;fontStyle=0;rounded=0;" parent="aRpeAPTy4dod1xrnkWrR-20" vertex="1">
          <mxGeometry x="250" width="160" height="30" as="geometry">
            <mxRectangle width="160" height="30" as="alternateBounds" />
          </mxGeometry>
        </mxCell>
        <mxCell id="aRpeAPTy4dod1xrnkWrR-24" value="" style="shape=partialRectangle;collapsible=0;dropTarget=0;pointerEvents=0;fillColor=none;points=[[0,0.5],[1,0.5]];portConstraint=eastwest;top=0;left=0;right=0;bottom=0;rounded=0;" parent="aRpeAPTy4dod1xrnkWrR-19" vertex="1">
          <mxGeometry y="60" width="410" height="30" as="geometry" />
        </mxCell>
        <mxCell id="aRpeAPTy4dod1xrnkWrR-25" value="FK" style="shape=partialRectangle;overflow=hidden;connectable=0;fillColor=none;top=0;left=0;bottom=0;right=0;rounded=0;" parent="aRpeAPTy4dod1xrnkWrR-24" vertex="1">
          <mxGeometry width="30" height="30" as="geometry">
            <mxRectangle width="30" height="30" as="alternateBounds" />
          </mxGeometry>
        </mxCell>
        <mxCell id="aRpeAPTy4dod1xrnkWrR-26" value="CustomerID NUMBER(2)" style="shape=partialRectangle;overflow=hidden;connectable=0;fillColor=none;top=0;left=0;bottom=0;right=0;align=left;spacingLeft=6;rounded=0;" parent="aRpeAPTy4dod1xrnkWrR-24" vertex="1">
          <mxGeometry x="30" width="220" height="30" as="geometry">
            <mxRectangle width="220" height="30" as="alternateBounds" />
          </mxGeometry>
        </mxCell>
        <mxCell id="aRpeAPTy4dod1xrnkWrR-27" value="NOT NULL" style="shape=partialRectangle;overflow=hidden;connectable=0;fillColor=none;top=0;left=0;bottom=0;right=0;align=left;spacingLeft=6;rounded=0;" parent="aRpeAPTy4dod1xrnkWrR-24" vertex="1">
          <mxGeometry x="250" width="160" height="30" as="geometry">
            <mxRectangle width="160" height="30" as="alternateBounds" />
          </mxGeometry>
        </mxCell>
        <mxCell id="Ai8oRI5nSIV9bpfUyO6s-47" value="" style="shape=partialRectangle;collapsible=0;dropTarget=0;pointerEvents=0;fillColor=none;points=[[0,0.5],[1,0.5]];portConstraint=eastwest;top=0;left=0;right=0;bottom=0;rounded=0;" parent="aRpeAPTy4dod1xrnkWrR-19" vertex="1">
          <mxGeometry y="90" width="410" height="30" as="geometry" />
        </mxCell>
        <mxCell id="Ai8oRI5nSIV9bpfUyO6s-48" value="FK" style="shape=partialRectangle;overflow=hidden;connectable=0;fillColor=none;top=0;left=0;bottom=0;right=0;rounded=0;" parent="Ai8oRI5nSIV9bpfUyO6s-47" vertex="1">
          <mxGeometry width="30" height="30" as="geometry">
            <mxRectangle width="30" height="30" as="alternateBounds" />
          </mxGeometry>
        </mxCell>
        <mxCell id="Ai8oRI5nSIV9bpfUyO6s-49" value="StoreID NUMBER(2)" style="shape=partialRectangle;overflow=hidden;connectable=0;fillColor=none;top=0;left=0;bottom=0;right=0;align=left;spacingLeft=6;rounded=0;" parent="Ai8oRI5nSIV9bpfUyO6s-47" vertex="1">
          <mxGeometry x="30" width="220" height="30" as="geometry">
            <mxRectangle width="220" height="30" as="alternateBounds" />
          </mxGeometry>
        </mxCell>
        <mxCell id="Ai8oRI5nSIV9bpfUyO6s-50" value="NOT NULL" style="shape=partialRectangle;overflow=hidden;connectable=0;fillColor=none;top=0;left=0;bottom=0;right=0;align=left;spacingLeft=6;rounded=0;" parent="Ai8oRI5nSIV9bpfUyO6s-47" vertex="1">
          <mxGeometry x="250" width="160" height="30" as="geometry">
            <mxRectangle width="160" height="30" as="alternateBounds" />
          </mxGeometry>
        </mxCell>
        <mxCell id="6-cQnS8KgKNfApvFQq_u-83" value="" style="shape=partialRectangle;collapsible=0;dropTarget=0;pointerEvents=0;fillColor=none;points=[[0,0.5],[1,0.5]];portConstraint=eastwest;top=0;left=0;right=0;bottom=0;rounded=0;" parent="aRpeAPTy4dod1xrnkWrR-19" vertex="1">
          <mxGeometry y="120" width="410" height="30" as="geometry" />
        </mxCell>
        <mxCell id="6-cQnS8KgKNfApvFQq_u-84" value="" style="shape=partialRectangle;overflow=hidden;connectable=0;fillColor=none;top=0;left=0;bottom=0;right=0;rounded=0;" parent="6-cQnS8KgKNfApvFQq_u-83" vertex="1">
          <mxGeometry width="30" height="30" as="geometry">
            <mxRectangle width="30" height="30" as="alternateBounds" />
          </mxGeometry>
        </mxCell>
        <mxCell id="6-cQnS8KgKNfApvFQq_u-85" value="orderDate    DATE" style="shape=partialRectangle;overflow=hidden;connectable=0;fillColor=none;top=0;left=0;bottom=0;right=0;align=left;spacingLeft=6;rounded=0;" parent="6-cQnS8KgKNfApvFQq_u-83" vertex="1">
          <mxGeometry x="30" width="220" height="30" as="geometry">
            <mxRectangle width="220" height="30" as="alternateBounds" />
          </mxGeometry>
        </mxCell>
        <mxCell id="6-cQnS8KgKNfApvFQq_u-86" value="NOT NULL" style="shape=partialRectangle;overflow=hidden;connectable=0;fillColor=none;top=0;left=0;bottom=0;right=0;align=left;spacingLeft=6;rounded=0;" parent="6-cQnS8KgKNfApvFQq_u-83" vertex="1">
          <mxGeometry x="250" width="160" height="30" as="geometry">
            <mxRectangle width="160" height="30" as="alternateBounds" />
          </mxGeometry>
        </mxCell>
        <mxCell id="s7tzDeLn5ftScS8IFM-b-1" value="Reviews" style="shape=table;startSize=30;container=1;collapsible=1;childLayout=tableLayout;fixedRows=1;rowLines=0;fontStyle=1;align=center;resizeLast=1;rounded=0;" parent="1" vertex="1">
          <mxGeometry x="-270" y="540" width="410" height="180" as="geometry" />
        </mxCell>
        <mxCell id="s7tzDeLn5ftScS8IFM-b-2" value="" style="shape=partialRectangle;collapsible=0;dropTarget=0;pointerEvents=0;fillColor=none;points=[[0,0.5],[1,0.5]];portConstraint=eastwest;top=0;left=0;right=0;bottom=1;rounded=0;" parent="s7tzDeLn5ftScS8IFM-b-1" vertex="1">
          <mxGeometry y="30" width="410" height="30" as="geometry" />
        </mxCell>
        <mxCell id="s7tzDeLn5ftScS8IFM-b-3" value="PK" style="shape=partialRectangle;overflow=hidden;connectable=0;fillColor=none;top=0;left=0;bottom=0;right=0;fontStyle=1;rounded=0;" parent="s7tzDeLn5ftScS8IFM-b-2" vertex="1">
          <mxGeometry width="30" height="30" as="geometry">
            <mxRectangle width="30" height="30" as="alternateBounds" />
          </mxGeometry>
        </mxCell>
        <mxCell id="s7tzDeLn5ftScS8IFM-b-4" value="ReviewID NUMBER(2)" style="shape=partialRectangle;overflow=hidden;connectable=0;fillColor=none;top=0;left=0;bottom=0;right=0;align=left;spacingLeft=6;fontStyle=0;rounded=0;" parent="s7tzDeLn5ftScS8IFM-b-2" vertex="1">
          <mxGeometry x="30" width="220" height="30" as="geometry">
            <mxRectangle width="220" height="30" as="alternateBounds" />
          </mxGeometry>
        </mxCell>
        <mxCell id="s7tzDeLn5ftScS8IFM-b-5" value="" style="shape=partialRectangle;overflow=hidden;connectable=0;fillColor=none;top=0;left=0;bottom=0;right=0;align=left;spacingLeft=6;fontStyle=0;rounded=0;" parent="s7tzDeLn5ftScS8IFM-b-2" vertex="1">
          <mxGeometry x="250" width="160" height="30" as="geometry">
            <mxRectangle width="160" height="30" as="alternateBounds" />
          </mxGeometry>
        </mxCell>
        <mxCell id="s7tzDeLn5ftScS8IFM-b-6" value="" style="shape=partialRectangle;collapsible=0;dropTarget=0;pointerEvents=0;fillColor=none;points=[[0,0.5],[1,0.5]];portConstraint=eastwest;top=0;left=0;right=0;bottom=0;rounded=0;" parent="s7tzDeLn5ftScS8IFM-b-1" vertex="1">
          <mxGeometry y="60" width="410" height="30" as="geometry" />
        </mxCell>
        <mxCell id="s7tzDeLn5ftScS8IFM-b-7" value="" style="shape=partialRectangle;overflow=hidden;connectable=0;fillColor=none;top=0;left=0;bottom=0;right=0;rounded=0;" parent="s7tzDeLn5ftScS8IFM-b-6" vertex="1">
          <mxGeometry width="30" height="30" as="geometry">
            <mxRectangle width="30" height="30" as="alternateBounds" />
          </mxGeometry>
        </mxCell>
        <mxCell id="s7tzDeLn5ftScS8IFM-b-8" value="star NUMBER(1)" style="shape=partialRectangle;overflow=hidden;connectable=0;fillColor=none;top=0;left=0;bottom=0;right=0;align=left;spacingLeft=6;rounded=0;" parent="s7tzDeLn5ftScS8IFM-b-6" vertex="1">
          <mxGeometry x="30" width="220" height="30" as="geometry">
            <mxRectangle width="220" height="30" as="alternateBounds" />
          </mxGeometry>
        </mxCell>
        <mxCell id="s7tzDeLn5ftScS8IFM-b-9" value="NOT NULL" style="shape=partialRectangle;overflow=hidden;connectable=0;fillColor=none;top=0;left=0;bottom=0;right=0;align=left;spacingLeft=6;rounded=0;" parent="s7tzDeLn5ftScS8IFM-b-6" vertex="1">
          <mxGeometry x="250" width="160" height="30" as="geometry">
            <mxRectangle width="160" height="30" as="alternateBounds" />
          </mxGeometry>
        </mxCell>
        <mxCell id="s7tzDeLn5ftScS8IFM-b-10" value="" style="shape=partialRectangle;collapsible=0;dropTarget=0;pointerEvents=0;fillColor=none;points=[[0,0.5],[1,0.5]];portConstraint=eastwest;top=0;left=0;right=0;bottom=0;rounded=0;" parent="s7tzDeLn5ftScS8IFM-b-1" vertex="1">
          <mxGeometry y="90" width="410" height="30" as="geometry" />
        </mxCell>
        <mxCell id="s7tzDeLn5ftScS8IFM-b-11" value="" style="shape=partialRectangle;overflow=hidden;connectable=0;fillColor=none;top=0;left=0;bottom=0;right=0;rounded=0;" parent="s7tzDeLn5ftScS8IFM-b-10" vertex="1">
          <mxGeometry width="30" height="30" as="geometry">
            <mxRectangle width="30" height="30" as="alternateBounds" />
          </mxGeometry>
        </mxCell>
        <mxCell id="s7tzDeLn5ftScS8IFM-b-12" value="flagNums NUMBER(1)" style="shape=partialRectangle;overflow=hidden;connectable=0;fillColor=none;top=0;left=0;bottom=0;right=0;align=left;spacingLeft=6;rounded=0;" parent="s7tzDeLn5ftScS8IFM-b-10" vertex="1">
          <mxGeometry x="30" width="220" height="30" as="geometry">
            <mxRectangle width="220" height="30" as="alternateBounds" />
          </mxGeometry>
        </mxCell>
        <mxCell id="s7tzDeLn5ftScS8IFM-b-13" value="NOT NULL" style="shape=partialRectangle;overflow=hidden;connectable=0;fillColor=none;top=0;left=0;bottom=0;right=0;align=left;spacingLeft=6;rounded=0;" parent="s7tzDeLn5ftScS8IFM-b-10" vertex="1">
          <mxGeometry x="250" width="160" height="30" as="geometry">
            <mxRectangle width="160" height="30" as="alternateBounds" />
          </mxGeometry>
        </mxCell>
        <mxCell id="Ai8oRI5nSIV9bpfUyO6s-1" value="" style="shape=partialRectangle;collapsible=0;dropTarget=0;pointerEvents=0;fillColor=none;points=[[0,0.5],[1,0.5]];portConstraint=eastwest;top=0;left=0;right=0;bottom=0;rounded=0;" parent="s7tzDeLn5ftScS8IFM-b-1" vertex="1">
          <mxGeometry y="120" width="410" height="30" as="geometry" />
        </mxCell>
        <mxCell id="Ai8oRI5nSIV9bpfUyO6s-2" value="" style="shape=partialRectangle;overflow=hidden;connectable=0;fillColor=none;top=0;left=0;bottom=0;right=0;rounded=0;" parent="Ai8oRI5nSIV9bpfUyO6s-1" vertex="1">
          <mxGeometry width="30" height="30" as="geometry">
            <mxRectangle width="30" height="30" as="alternateBounds" />
          </mxGeometry>
        </mxCell>
        <mxCell id="Ai8oRI5nSIV9bpfUyO6s-3" value="description VARCHAR(40)" style="shape=partialRectangle;overflow=hidden;connectable=0;fillColor=none;top=0;left=0;bottom=0;right=0;align=left;spacingLeft=6;rounded=0;" parent="Ai8oRI5nSIV9bpfUyO6s-1" vertex="1">
          <mxGeometry x="30" width="220" height="30" as="geometry">
            <mxRectangle width="220" height="30" as="alternateBounds" />
          </mxGeometry>
        </mxCell>
        <mxCell id="Ai8oRI5nSIV9bpfUyO6s-4" value="" style="shape=partialRectangle;overflow=hidden;connectable=0;fillColor=none;top=0;left=0;bottom=0;right=0;align=left;spacingLeft=6;rounded=0;" parent="Ai8oRI5nSIV9bpfUyO6s-1" vertex="1">
          <mxGeometry x="250" width="160" height="30" as="geometry">
            <mxRectangle width="160" height="30" as="alternateBounds" />
          </mxGeometry>
        </mxCell>
        <mxCell id="Ai8oRI5nSIV9bpfUyO6s-5" value="" style="shape=partialRectangle;collapsible=0;dropTarget=0;pointerEvents=0;fillColor=none;points=[[0,0.5],[1,0.5]];portConstraint=eastwest;top=0;left=0;right=0;bottom=0;rounded=0;" parent="s7tzDeLn5ftScS8IFM-b-1" vertex="1">
          <mxGeometry y="150" width="410" height="30" as="geometry" />
        </mxCell>
        <mxCell id="Ai8oRI5nSIV9bpfUyO6s-6" value="FK" style="shape=partialRectangle;overflow=hidden;connectable=0;fillColor=none;top=0;left=0;bottom=0;right=0;rounded=0;" parent="Ai8oRI5nSIV9bpfUyO6s-5" vertex="1">
          <mxGeometry width="30" height="30" as="geometry">
            <mxRectangle width="30" height="30" as="alternateBounds" />
          </mxGeometry>
        </mxCell>
        <mxCell id="Ai8oRI5nSIV9bpfUyO6s-7" value="ProductID NUMBER(2)" style="shape=partialRectangle;overflow=hidden;connectable=0;fillColor=none;top=0;left=0;bottom=0;right=0;align=left;spacingLeft=6;rounded=0;" parent="Ai8oRI5nSIV9bpfUyO6s-5" vertex="1">
          <mxGeometry x="30" width="220" height="30" as="geometry">
            <mxRectangle width="220" height="30" as="alternateBounds" />
          </mxGeometry>
        </mxCell>
        <mxCell id="Ai8oRI5nSIV9bpfUyO6s-8" value="NOT NULL" style="shape=partialRectangle;overflow=hidden;connectable=0;fillColor=none;top=0;left=0;bottom=0;right=0;align=left;spacingLeft=6;rounded=0;" parent="Ai8oRI5nSIV9bpfUyO6s-5" vertex="1">
          <mxGeometry x="250" width="160" height="30" as="geometry">
            <mxRectangle width="160" height="30" as="alternateBounds" />
          </mxGeometry>
        </mxCell>
        <mxCell id="s7tzDeLn5ftScS8IFM-b-14" value="Customers" style="shape=table;startSize=30;container=1;collapsible=1;childLayout=tableLayout;fixedRows=1;rowLines=0;fontStyle=1;align=center;resizeLast=1;rounded=0;" parent="1" vertex="1">
          <mxGeometry x="830" y="590" width="410" height="300" as="geometry" />
        </mxCell>
        <mxCell id="s7tzDeLn5ftScS8IFM-b-15" value="" style="shape=partialRectangle;collapsible=0;dropTarget=0;pointerEvents=0;fillColor=none;points=[[0,0.5],[1,0.5]];portConstraint=eastwest;top=0;left=0;right=0;bottom=1;rounded=0;" parent="s7tzDeLn5ftScS8IFM-b-14" vertex="1">
          <mxGeometry y="30" width="410" height="30" as="geometry" />
        </mxCell>
        <mxCell id="s7tzDeLn5ftScS8IFM-b-16" value="PK" style="shape=partialRectangle;overflow=hidden;connectable=0;fillColor=none;top=0;left=0;bottom=0;right=0;fontStyle=1;rounded=0;" parent="s7tzDeLn5ftScS8IFM-b-15" vertex="1">
          <mxGeometry width="30" height="30" as="geometry">
            <mxRectangle width="30" height="30" as="alternateBounds" />
          </mxGeometry>
        </mxCell>
        <mxCell id="s7tzDeLn5ftScS8IFM-b-17" value="CustomerID         NUMBER(2)" style="shape=partialRectangle;overflow=hidden;connectable=0;fillColor=none;top=0;left=0;bottom=0;right=0;align=left;spacingLeft=6;fontStyle=0;rounded=0;" parent="s7tzDeLn5ftScS8IFM-b-15" vertex="1">
          <mxGeometry x="30" width="220" height="30" as="geometry">
            <mxRectangle width="220" height="30" as="alternateBounds" />
          </mxGeometry>
        </mxCell>
        <mxCell id="s7tzDeLn5ftScS8IFM-b-18" value="" style="shape=partialRectangle;overflow=hidden;connectable=0;fillColor=none;top=0;left=0;bottom=0;right=0;align=left;spacingLeft=6;fontStyle=0;rounded=0;" parent="s7tzDeLn5ftScS8IFM-b-15" vertex="1">
          <mxGeometry x="250" width="160" height="30" as="geometry">
            <mxRectangle width="160" height="30" as="alternateBounds" />
          </mxGeometry>
        </mxCell>
        <mxCell id="s7tzDeLn5ftScS8IFM-b-19" value="" style="shape=partialRectangle;collapsible=0;dropTarget=0;pointerEvents=0;fillColor=none;points=[[0,0.5],[1,0.5]];portConstraint=eastwest;top=0;left=0;right=0;bottom=0;rounded=0;" parent="s7tzDeLn5ftScS8IFM-b-14" vertex="1">
          <mxGeometry y="60" width="410" height="30" as="geometry" />
        </mxCell>
        <mxCell id="s7tzDeLn5ftScS8IFM-b-20" value="" style="shape=partialRectangle;overflow=hidden;connectable=0;fillColor=none;top=0;left=0;bottom=0;right=0;rounded=0;" parent="s7tzDeLn5ftScS8IFM-b-19" vertex="1">
          <mxGeometry width="30" height="30" as="geometry">
            <mxRectangle width="30" height="30" as="alternateBounds" />
          </mxGeometry>
        </mxCell>
        <mxCell id="s7tzDeLn5ftScS8IFM-b-21" value="FirstName VARCHAR(20)" style="shape=partialRectangle;overflow=hidden;connectable=0;fillColor=none;top=0;left=0;bottom=0;right=0;align=left;spacingLeft=6;rounded=0;" parent="s7tzDeLn5ftScS8IFM-b-19" vertex="1">
          <mxGeometry x="30" width="220" height="30" as="geometry">
            <mxRectangle width="220" height="30" as="alternateBounds" />
          </mxGeometry>
        </mxCell>
        <mxCell id="s7tzDeLn5ftScS8IFM-b-22" value="NOT NULL" style="shape=partialRectangle;overflow=hidden;connectable=0;fillColor=none;top=0;left=0;bottom=0;right=0;align=left;spacingLeft=6;rounded=0;" parent="s7tzDeLn5ftScS8IFM-b-19" vertex="1">
          <mxGeometry x="250" width="160" height="30" as="geometry">
            <mxRectangle width="160" height="30" as="alternateBounds" />
          </mxGeometry>
        </mxCell>
        <mxCell id="s7tzDeLn5ftScS8IFM-b-23" value="" style="shape=partialRectangle;collapsible=0;dropTarget=0;pointerEvents=0;fillColor=none;points=[[0,0.5],[1,0.5]];portConstraint=eastwest;top=0;left=0;right=0;bottom=0;rounded=0;" parent="s7tzDeLn5ftScS8IFM-b-14" vertex="1">
          <mxGeometry y="90" width="410" height="30" as="geometry" />
        </mxCell>
        <mxCell id="s7tzDeLn5ftScS8IFM-b-24" value="" style="shape=partialRectangle;overflow=hidden;connectable=0;fillColor=none;top=0;left=0;bottom=0;right=0;rounded=0;" parent="s7tzDeLn5ftScS8IFM-b-23" vertex="1">
          <mxGeometry width="30" height="30" as="geometry">
            <mxRectangle width="30" height="30" as="alternateBounds" />
          </mxGeometry>
        </mxCell>
        <mxCell id="s7tzDeLn5ftScS8IFM-b-25" value="LastName VARCHAR(20)" style="shape=partialRectangle;overflow=hidden;connectable=0;fillColor=none;top=0;left=0;bottom=0;right=0;align=left;spacingLeft=6;rounded=0;" parent="s7tzDeLn5ftScS8IFM-b-23" vertex="1">
          <mxGeometry x="30" width="220" height="30" as="geometry">
            <mxRectangle width="220" height="30" as="alternateBounds" />
          </mxGeometry>
        </mxCell>
        <mxCell id="s7tzDeLn5ftScS8IFM-b-26" value="NOT NULL" style="shape=partialRectangle;overflow=hidden;connectable=0;fillColor=none;top=0;left=0;bottom=0;right=0;align=left;spacingLeft=6;rounded=0;" parent="s7tzDeLn5ftScS8IFM-b-23" vertex="1">
          <mxGeometry x="250" width="160" height="30" as="geometry">
            <mxRectangle width="160" height="30" as="alternateBounds" />
          </mxGeometry>
        </mxCell>
        <mxCell id="Ai8oRI5nSIV9bpfUyO6s-39" value="" style="shape=partialRectangle;collapsible=0;dropTarget=0;pointerEvents=0;fillColor=none;points=[[0,0.5],[1,0.5]];portConstraint=eastwest;top=0;left=0;right=0;bottom=0;rounded=0;" parent="s7tzDeLn5ftScS8IFM-b-14" vertex="1">
          <mxGeometry y="120" width="410" height="30" as="geometry" />
        </mxCell>
        <mxCell id="Ai8oRI5nSIV9bpfUyO6s-40" value="" style="shape=partialRectangle;overflow=hidden;connectable=0;fillColor=none;top=0;left=0;bottom=0;right=0;rounded=0;" parent="Ai8oRI5nSIV9bpfUyO6s-39" vertex="1">
          <mxGeometry width="30" height="30" as="geometry">
            <mxRectangle width="30" height="30" as="alternateBounds" />
          </mxGeometry>
        </mxCell>
        <mxCell id="Ai8oRI5nSIV9bpfUyO6s-41" value="email VARCHAR(20)" style="shape=partialRectangle;overflow=hidden;connectable=0;fillColor=none;top=0;left=0;bottom=0;right=0;align=left;spacingLeft=6;rounded=0;" parent="Ai8oRI5nSIV9bpfUyO6s-39" vertex="1">
          <mxGeometry x="30" width="220" height="30" as="geometry">
            <mxRectangle width="220" height="30" as="alternateBounds" />
          </mxGeometry>
        </mxCell>
        <mxCell id="Ai8oRI5nSIV9bpfUyO6s-42" value="NOT NULL" style="shape=partialRectangle;overflow=hidden;connectable=0;fillColor=none;top=0;left=0;bottom=0;right=0;align=left;spacingLeft=6;rounded=0;" parent="Ai8oRI5nSIV9bpfUyO6s-39" vertex="1">
          <mxGeometry x="250" width="160" height="30" as="geometry">
            <mxRectangle width="160" height="30" as="alternateBounds" />
          </mxGeometry>
        </mxCell>
        <mxCell id="6-cQnS8KgKNfApvFQq_u-67" value="" style="shape=partialRectangle;collapsible=0;dropTarget=0;pointerEvents=0;fillColor=none;points=[[0,0.5],[1,0.5]];portConstraint=eastwest;top=0;left=0;right=0;bottom=0;rounded=0;" parent="s7tzDeLn5ftScS8IFM-b-14" vertex="1">
          <mxGeometry y="150" width="410" height="30" as="geometry" />
        </mxCell>
        <mxCell id="6-cQnS8KgKNfApvFQq_u-68" value="" style="shape=partialRectangle;overflow=hidden;connectable=0;fillColor=none;top=0;left=0;bottom=0;right=0;rounded=0;" parent="6-cQnS8KgKNfApvFQq_u-67" vertex="1">
          <mxGeometry width="30" height="30" as="geometry">
            <mxRectangle width="30" height="30" as="alternateBounds" />
          </mxGeometry>
        </mxCell>
        <mxCell id="6-cQnS8KgKNfApvFQq_u-69" value="streetAddress     VARCHAR2(100)" style="shape=partialRectangle;overflow=hidden;connectable=0;fillColor=none;top=0;left=0;bottom=0;right=0;align=left;spacingLeft=6;rounded=0;" parent="6-cQnS8KgKNfApvFQq_u-67" vertex="1">
          <mxGeometry x="30" width="220" height="30" as="geometry">
            <mxRectangle width="220" height="30" as="alternateBounds" />
          </mxGeometry>
        </mxCell>
        <mxCell id="6-cQnS8KgKNfApvFQq_u-70" value="NOT NULL" style="shape=partialRectangle;overflow=hidden;connectable=0;fillColor=none;top=0;left=0;bottom=0;right=0;align=left;spacingLeft=6;rounded=0;" parent="6-cQnS8KgKNfApvFQq_u-67" vertex="1">
          <mxGeometry x="250" width="160" height="30" as="geometry">
            <mxRectangle width="160" height="30" as="alternateBounds" />
          </mxGeometry>
        </mxCell>
        <mxCell id="6-cQnS8KgKNfApvFQq_u-71" value="" style="shape=partialRectangle;collapsible=0;dropTarget=0;pointerEvents=0;fillColor=none;points=[[0,0.5],[1,0.5]];portConstraint=eastwest;top=0;left=0;right=0;bottom=0;rounded=0;" parent="s7tzDeLn5ftScS8IFM-b-14" vertex="1">
          <mxGeometry y="180" width="410" height="30" as="geometry" />
        </mxCell>
        <mxCell id="6-cQnS8KgKNfApvFQq_u-72" value="" style="shape=partialRectangle;overflow=hidden;connectable=0;fillColor=none;top=0;left=0;bottom=0;right=0;rounded=0;" parent="6-cQnS8KgKNfApvFQq_u-71" vertex="1">
          <mxGeometry width="30" height="30" as="geometry">
            <mxRectangle width="30" height="30" as="alternateBounds" />
          </mxGeometry>
        </mxCell>
        <mxCell id="6-cQnS8KgKNfApvFQq_u-73" value="ctity                       VARCHAR2(20)" style="shape=partialRectangle;overflow=hidden;connectable=0;fillColor=none;top=0;left=0;bottom=0;right=0;align=left;spacingLeft=6;rounded=0;" parent="6-cQnS8KgKNfApvFQq_u-71" vertex="1">
          <mxGeometry x="30" width="220" height="30" as="geometry">
            <mxRectangle width="220" height="30" as="alternateBounds" />
          </mxGeometry>
        </mxCell>
        <mxCell id="6-cQnS8KgKNfApvFQq_u-74" value="NOT NULL" style="shape=partialRectangle;overflow=hidden;connectable=0;fillColor=none;top=0;left=0;bottom=0;right=0;align=left;spacingLeft=6;rounded=0;" parent="6-cQnS8KgKNfApvFQq_u-71" vertex="1">
          <mxGeometry x="250" width="160" height="30" as="geometry">
            <mxRectangle width="160" height="30" as="alternateBounds" />
          </mxGeometry>
        </mxCell>
        <mxCell id="6-cQnS8KgKNfApvFQq_u-75" value="" style="shape=partialRectangle;collapsible=0;dropTarget=0;pointerEvents=0;fillColor=none;points=[[0,0.5],[1,0.5]];portConstraint=eastwest;top=0;left=0;right=0;bottom=0;rounded=0;" parent="s7tzDeLn5ftScS8IFM-b-14" vertex="1">
          <mxGeometry y="210" width="410" height="30" as="geometry" />
        </mxCell>
        <mxCell id="6-cQnS8KgKNfApvFQq_u-76" value="" style="shape=partialRectangle;overflow=hidden;connectable=0;fillColor=none;top=0;left=0;bottom=0;right=0;rounded=0;" parent="6-cQnS8KgKNfApvFQq_u-75" vertex="1">
          <mxGeometry width="30" height="30" as="geometry">
            <mxRectangle width="30" height="30" as="alternateBounds" />
          </mxGeometry>
        </mxCell>
        <mxCell id="6-cQnS8KgKNfApvFQq_u-77" value="province               VARCHAR2(20)" style="shape=partialRectangle;overflow=hidden;connectable=0;fillColor=none;top=0;left=0;bottom=0;right=0;align=left;spacingLeft=6;rounded=0;" parent="6-cQnS8KgKNfApvFQq_u-75" vertex="1">
          <mxGeometry x="30" width="220" height="30" as="geometry">
            <mxRectangle width="220" height="30" as="alternateBounds" />
          </mxGeometry>
        </mxCell>
        <mxCell id="6-cQnS8KgKNfApvFQq_u-78" value="NOT NULL" style="shape=partialRectangle;overflow=hidden;connectable=0;fillColor=none;top=0;left=0;bottom=0;right=0;align=left;spacingLeft=6;rounded=0;" parent="6-cQnS8KgKNfApvFQq_u-75" vertex="1">
          <mxGeometry x="250" width="160" height="30" as="geometry">
            <mxRectangle width="160" height="30" as="alternateBounds" />
          </mxGeometry>
        </mxCell>
        <mxCell id="6-cQnS8KgKNfApvFQq_u-79" value="" style="shape=partialRectangle;collapsible=0;dropTarget=0;pointerEvents=0;fillColor=none;points=[[0,0.5],[1,0.5]];portConstraint=eastwest;top=0;left=0;right=0;bottom=0;rounded=0;" parent="s7tzDeLn5ftScS8IFM-b-14" vertex="1">
          <mxGeometry y="240" width="410" height="30" as="geometry" />
        </mxCell>
        <mxCell id="6-cQnS8KgKNfApvFQq_u-80" value="" style="shape=partialRectangle;overflow=hidden;connectable=0;fillColor=none;top=0;left=0;bottom=0;right=0;rounded=0;" parent="6-cQnS8KgKNfApvFQq_u-79" vertex="1">
          <mxGeometry width="30" height="30" as="geometry">
            <mxRectangle width="30" height="30" as="alternateBounds" />
          </mxGeometry>
        </mxCell>
        <mxCell id="6-cQnS8KgKNfApvFQq_u-81" value="country                 VARCHAR2(20)   " style="shape=partialRectangle;overflow=hidden;connectable=0;fillColor=none;top=0;left=0;bottom=0;right=0;align=left;spacingLeft=6;rounded=0;" parent="6-cQnS8KgKNfApvFQq_u-79" vertex="1">
          <mxGeometry x="30" width="220" height="30" as="geometry">
            <mxRectangle width="220" height="30" as="alternateBounds" />
          </mxGeometry>
        </mxCell>
        <mxCell id="6-cQnS8KgKNfApvFQq_u-82" value="NOT NULL" style="shape=partialRectangle;overflow=hidden;connectable=0;fillColor=none;top=0;left=0;bottom=0;right=0;align=left;spacingLeft=6;rounded=0;" parent="6-cQnS8KgKNfApvFQq_u-79" vertex="1">
          <mxGeometry x="250" width="160" height="30" as="geometry">
            <mxRectangle width="160" height="30" as="alternateBounds" />
          </mxGeometry>
        </mxCell>
        <mxCell id="-Xn9VFNbD_UYYj7i1uQm-1" value="" style="shape=partialRectangle;collapsible=0;dropTarget=0;pointerEvents=0;fillColor=none;points=[[0,0.5],[1,0.5]];portConstraint=eastwest;top=0;left=0;right=0;bottom=0;rounded=0;" vertex="1" parent="s7tzDeLn5ftScS8IFM-b-14">
          <mxGeometry y="270" width="410" height="30" as="geometry" />
        </mxCell>
        <mxCell id="-Xn9VFNbD_UYYj7i1uQm-2" value="" style="shape=partialRectangle;overflow=hidden;connectable=0;fillColor=none;top=0;left=0;bottom=0;right=0;rounded=0;" vertex="1" parent="-Xn9VFNbD_UYYj7i1uQm-1">
          <mxGeometry width="30" height="30" as="geometry">
            <mxRectangle width="30" height="30" as="alternateBounds" />
          </mxGeometry>
        </mxCell>
        <mxCell id="-Xn9VFNbD_UYYj7i1uQm-3" value="password VARCHAR2(20)   " style="shape=partialRectangle;overflow=hidden;connectable=0;fillColor=none;top=0;left=0;bottom=0;right=0;align=left;spacingLeft=6;rounded=0;" vertex="1" parent="-Xn9VFNbD_UYYj7i1uQm-1">
          <mxGeometry x="30" width="220" height="30" as="geometry">
            <mxRectangle width="220" height="30" as="alternateBounds" />
          </mxGeometry>
        </mxCell>
        <mxCell id="-Xn9VFNbD_UYYj7i1uQm-4" value="NOT NULL" style="shape=partialRectangle;overflow=hidden;connectable=0;fillColor=none;top=0;left=0;bottom=0;right=0;align=left;spacingLeft=6;rounded=0;" vertex="1" parent="-Xn9VFNbD_UYYj7i1uQm-1">
          <mxGeometry x="250" width="160" height="30" as="geometry">
            <mxRectangle width="160" height="30" as="alternateBounds" />
          </mxGeometry>
        </mxCell>
        <mxCell id="Ai8oRI5nSIV9bpfUyO6s-17" value="stores_products" style="shape=table;startSize=30;container=1;collapsible=1;childLayout=tableLayout;fixedRows=1;rowLines=0;fontStyle=1;align=center;resizeLast=1;rounded=0;" parent="1" vertex="1">
          <mxGeometry x="605" y="30" width="380" height="150" as="geometry" />
        </mxCell>
        <mxCell id="Ai8oRI5nSIV9bpfUyO6s-18" style="shape=partialRectangle;collapsible=0;dropTarget=0;pointerEvents=0;fillColor=none;points=[[0,0.5],[1,0.5]];portConstraint=eastwest;top=0;left=0;right=0;bottom=0;rounded=0;" parent="Ai8oRI5nSIV9bpfUyO6s-17" vertex="1">
          <mxGeometry y="30" width="380" height="40" as="geometry" />
        </mxCell>
        <mxCell id="Ai8oRI5nSIV9bpfUyO6s-19" value="FK" style="shape=partialRectangle;overflow=hidden;connectable=0;fillColor=none;top=0;left=0;bottom=0;right=0;fontStyle=1;rounded=0;" parent="Ai8oRI5nSIV9bpfUyO6s-18" vertex="1">
          <mxGeometry width="30" height="40" as="geometry">
            <mxRectangle width="30" height="40" as="alternateBounds" />
          </mxGeometry>
        </mxCell>
        <mxCell id="Ai8oRI5nSIV9bpfUyO6s-20" value="StoreID NUMBER(2)" style="shape=partialRectangle;overflow=hidden;connectable=0;fillColor=none;top=0;left=0;bottom=0;right=0;align=left;spacingLeft=6;fontStyle=0;rounded=0;" parent="Ai8oRI5nSIV9bpfUyO6s-18" vertex="1">
          <mxGeometry x="30" width="210" height="40" as="geometry">
            <mxRectangle width="210" height="40" as="alternateBounds" />
          </mxGeometry>
        </mxCell>
        <mxCell id="Ai8oRI5nSIV9bpfUyO6s-21" value="NOT NULL" style="shape=partialRectangle;overflow=hidden;connectable=0;fillColor=none;top=0;left=0;bottom=0;right=0;align=left;spacingLeft=6;rounded=0;" parent="Ai8oRI5nSIV9bpfUyO6s-18" vertex="1">
          <mxGeometry x="240" width="140" height="40" as="geometry">
            <mxRectangle width="140" height="40" as="alternateBounds" />
          </mxGeometry>
        </mxCell>
        <mxCell id="Ai8oRI5nSIV9bpfUyO6s-22" style="shape=partialRectangle;collapsible=0;dropTarget=0;pointerEvents=0;fillColor=none;points=[[0,0.5],[1,0.5]];portConstraint=eastwest;top=0;left=0;right=0;bottom=0;fontStyle=0;rounded=0;" parent="Ai8oRI5nSIV9bpfUyO6s-17" vertex="1">
          <mxGeometry y="70" width="380" height="40" as="geometry" />
        </mxCell>
        <mxCell id="Ai8oRI5nSIV9bpfUyO6s-23" value="FK" style="shape=partialRectangle;overflow=hidden;connectable=0;fillColor=none;top=0;left=0;bottom=0;right=0;fontStyle=1;rounded=0;" parent="Ai8oRI5nSIV9bpfUyO6s-22" vertex="1">
          <mxGeometry width="30" height="40" as="geometry">
            <mxRectangle width="30" height="40" as="alternateBounds" />
          </mxGeometry>
        </mxCell>
        <mxCell id="Ai8oRI5nSIV9bpfUyO6s-24" value="ProductID NUMBER(2)" style="shape=partialRectangle;overflow=hidden;connectable=0;fillColor=none;top=0;left=0;bottom=0;right=0;align=left;spacingLeft=6;fontStyle=0;rounded=0;" parent="Ai8oRI5nSIV9bpfUyO6s-22" vertex="1">
          <mxGeometry x="30" width="210" height="40" as="geometry">
            <mxRectangle width="210" height="40" as="alternateBounds" />
          </mxGeometry>
        </mxCell>
        <mxCell id="Ai8oRI5nSIV9bpfUyO6s-25" value="NOT NULL" style="shape=partialRectangle;overflow=hidden;connectable=0;fillColor=none;top=0;left=0;bottom=0;right=0;align=left;spacingLeft=6;rounded=0;" parent="Ai8oRI5nSIV9bpfUyO6s-22" vertex="1">
          <mxGeometry x="240" width="140" height="40" as="geometry">
            <mxRectangle width="140" height="40" as="alternateBounds" />
          </mxGeometry>
        </mxCell>
        <mxCell id="Ai8oRI5nSIV9bpfUyO6s-26" style="shape=partialRectangle;collapsible=0;dropTarget=0;pointerEvents=0;fillColor=none;points=[[0,0.5],[1,0.5]];portConstraint=eastwest;top=0;left=0;right=0;bottom=0;fontStyle=0;rounded=0;" parent="Ai8oRI5nSIV9bpfUyO6s-17" vertex="1">
          <mxGeometry y="110" width="380" height="40" as="geometry" />
        </mxCell>
        <mxCell id="Ai8oRI5nSIV9bpfUyO6s-27" value="" style="shape=partialRectangle;overflow=hidden;connectable=0;fillColor=none;top=0;left=0;bottom=0;right=0;fontStyle=1;rounded=0;" parent="Ai8oRI5nSIV9bpfUyO6s-26" vertex="1">
          <mxGeometry width="30" height="40" as="geometry">
            <mxRectangle width="30" height="40" as="alternateBounds" />
          </mxGeometry>
        </mxCell>
        <mxCell id="Ai8oRI5nSIV9bpfUyO6s-28" value="price NUMBER(2)" style="shape=partialRectangle;overflow=hidden;connectable=0;fillColor=none;top=0;left=0;bottom=0;right=0;align=left;spacingLeft=6;fontStyle=0;rounded=0;" parent="Ai8oRI5nSIV9bpfUyO6s-26" vertex="1">
          <mxGeometry x="30" width="210" height="40" as="geometry">
            <mxRectangle width="210" height="40" as="alternateBounds" />
          </mxGeometry>
        </mxCell>
        <mxCell id="Ai8oRI5nSIV9bpfUyO6s-29" value="NOT NULL" style="shape=partialRectangle;overflow=hidden;connectable=0;fillColor=none;top=0;left=0;bottom=0;right=0;align=left;spacingLeft=6;rounded=0;" parent="Ai8oRI5nSIV9bpfUyO6s-26" vertex="1">
          <mxGeometry x="240" width="140" height="40" as="geometry">
            <mxRectangle width="140" height="40" as="alternateBounds" />
          </mxGeometry>
        </mxCell>
        <mxCell id="Ai8oRI5nSIV9bpfUyO6s-30" value="" style="edgeStyle=entityRelationEdgeStyle;fontSize=12;html=1;endArrow=ERoneToMany;startArrow=ERmandOne;rounded=0;" parent="1" source="aRpeAPTy4dod1xrnkWrR-6" target="Ai8oRI5nSIV9bpfUyO6s-17" edge="1">
          <mxGeometry width="100" height="100" relative="1" as="geometry">
            <mxPoint x="590" y="400" as="sourcePoint" />
            <mxPoint x="690" y="300" as="targetPoint" />
            <Array as="points">
              <mxPoint x="540" y="170" />
              <mxPoint x="530" y="140" />
              <mxPoint x="530" y="90" />
            </Array>
          </mxGeometry>
        </mxCell>
        <mxCell id="Ai8oRI5nSIV9bpfUyO6s-31" value="" style="edgeStyle=entityRelationEdgeStyle;fontSize=12;html=1;endArrow=ERoneToMany;startArrow=ERmandOne;rounded=0;" parent="1" source="aRpeAPTy4dod1xrnkWrR-1" target="Ai8oRI5nSIV9bpfUyO6s-17" edge="1">
          <mxGeometry width="100" height="100" relative="1" as="geometry">
            <mxPoint x="475" y="142" as="sourcePoint" />
            <mxPoint x="615" y="115" as="targetPoint" />
          </mxGeometry>
        </mxCell>
        <mxCell id="Ai8oRI5nSIV9bpfUyO6s-38" value="" style="edgeStyle=elbowEdgeStyle;fontSize=12;html=1;endArrow=ERoneToMany;startArrow=ERzeroToOne;rounded=0;" parent="1" source="aRpeAPTy4dod1xrnkWrR-6" target="s7tzDeLn5ftScS8IFM-b-1" edge="1">
          <mxGeometry width="100" height="100" relative="1" as="geometry">
            <mxPoint x="350" y="400" as="sourcePoint" />
            <mxPoint x="450" y="300" as="targetPoint" />
          </mxGeometry>
        </mxCell>
        <mxCell id="Ai8oRI5nSIV9bpfUyO6s-55" value="" style="edgeStyle=elbowEdgeStyle;fontSize=12;html=1;endArrow=ERzeroToOne;startArrow=ERmandOne;rounded=0;elbow=vertical;" parent="1" source="aRpeAPTy4dod1xrnkWrR-1" target="aRpeAPTy4dod1xrnkWrR-19" edge="1">
          <mxGeometry width="100" height="100" relative="1" as="geometry">
            <mxPoint x="670" y="400" as="sourcePoint" />
            <mxPoint x="770" y="300" as="targetPoint" />
          </mxGeometry>
        </mxCell>
        <mxCell id="Ai8oRI5nSIV9bpfUyO6s-56" value="Warehouse" style="shape=table;startSize=30;container=1;collapsible=1;childLayout=tableLayout;fixedRows=1;rowLines=0;fontStyle=1;align=center;resizeLast=1;rounded=0;" parent="1" vertex="1">
          <mxGeometry x="575" y="-130" width="410" height="90" as="geometry" />
        </mxCell>
        <mxCell id="Ai8oRI5nSIV9bpfUyO6s-57" value="" style="shape=partialRectangle;collapsible=0;dropTarget=0;pointerEvents=0;fillColor=none;points=[[0,0.5],[1,0.5]];portConstraint=eastwest;top=0;left=0;right=0;bottom=1;rounded=0;" parent="Ai8oRI5nSIV9bpfUyO6s-56" vertex="1">
          <mxGeometry y="30" width="410" height="30" as="geometry" />
        </mxCell>
        <mxCell id="Ai8oRI5nSIV9bpfUyO6s-58" value="PK" style="shape=partialRectangle;overflow=hidden;connectable=0;fillColor=none;top=0;left=0;bottom=0;right=0;fontStyle=1;rounded=0;" parent="Ai8oRI5nSIV9bpfUyO6s-57" vertex="1">
          <mxGeometry width="30" height="30" as="geometry">
            <mxRectangle width="30" height="30" as="alternateBounds" />
          </mxGeometry>
        </mxCell>
        <mxCell id="Ai8oRI5nSIV9bpfUyO6s-59" value="WarehouseID NUMBER(2)" style="shape=partialRectangle;overflow=hidden;connectable=0;fillColor=none;top=0;left=0;bottom=0;right=0;align=left;spacingLeft=6;fontStyle=5;rounded=0;" parent="Ai8oRI5nSIV9bpfUyO6s-57" vertex="1">
          <mxGeometry x="30" width="220" height="30" as="geometry">
            <mxRectangle width="220" height="30" as="alternateBounds" />
          </mxGeometry>
        </mxCell>
        <mxCell id="Ai8oRI5nSIV9bpfUyO6s-60" value="" style="shape=partialRectangle;overflow=hidden;connectable=0;fillColor=none;top=0;left=0;bottom=0;right=0;align=left;spacingLeft=6;fontStyle=0;rounded=0;" parent="Ai8oRI5nSIV9bpfUyO6s-57" vertex="1">
          <mxGeometry x="250" width="160" height="30" as="geometry">
            <mxRectangle width="160" height="30" as="alternateBounds" />
          </mxGeometry>
        </mxCell>
        <mxCell id="6-cQnS8KgKNfApvFQq_u-6" value="" style="shape=partialRectangle;collapsible=0;dropTarget=0;pointerEvents=0;fillColor=none;points=[[0,0.5],[1,0.5]];portConstraint=eastwest;top=0;left=0;right=0;bottom=1;rounded=0;" parent="Ai8oRI5nSIV9bpfUyO6s-56" vertex="1">
          <mxGeometry y="60" width="410" height="30" as="geometry" />
        </mxCell>
        <mxCell id="6-cQnS8KgKNfApvFQq_u-7" value="" style="shape=partialRectangle;overflow=hidden;connectable=0;fillColor=none;top=0;left=0;bottom=0;right=0;fontStyle=1;rounded=0;" parent="6-cQnS8KgKNfApvFQq_u-6" vertex="1">
          <mxGeometry width="30" height="30" as="geometry">
            <mxRectangle width="30" height="30" as="alternateBounds" />
          </mxGeometry>
        </mxCell>
        <mxCell id="6-cQnS8KgKNfApvFQq_u-8" value="WarehouseName VARCHAR2(20)" style="shape=partialRectangle;overflow=hidden;connectable=0;fillColor=none;top=0;left=0;bottom=0;right=0;align=left;spacingLeft=6;fontStyle=1;rounded=0;" parent="6-cQnS8KgKNfApvFQq_u-6" vertex="1">
          <mxGeometry x="30" width="220" height="30" as="geometry">
            <mxRectangle width="220" height="30" as="alternateBounds" />
          </mxGeometry>
        </mxCell>
        <mxCell id="6-cQnS8KgKNfApvFQq_u-9" value="" style="shape=partialRectangle;overflow=hidden;connectable=0;fillColor=none;top=0;left=0;bottom=0;right=0;align=left;spacingLeft=6;fontStyle=0;rounded=0;" parent="6-cQnS8KgKNfApvFQq_u-6" vertex="1">
          <mxGeometry x="250" width="160" height="30" as="geometry">
            <mxRectangle width="160" height="30" as="alternateBounds" />
          </mxGeometry>
        </mxCell>
        <mxCell id="Ai8oRI5nSIV9bpfUyO6s-69" value="Warehouse_Stores" style="shape=table;startSize=30;container=1;collapsible=1;childLayout=tableLayout;fixedRows=1;rowLines=0;fontStyle=1;align=center;resizeLast=1;rounded=0;" parent="1" vertex="1">
          <mxGeometry x="1095" y="-130" width="410" height="90" as="geometry" />
        </mxCell>
        <mxCell id="Ai8oRI5nSIV9bpfUyO6s-70" value="" style="shape=partialRectangle;collapsible=0;dropTarget=0;pointerEvents=0;fillColor=none;points=[[0,0.5],[1,0.5]];portConstraint=eastwest;top=0;left=0;right=0;bottom=1;rounded=0;" parent="Ai8oRI5nSIV9bpfUyO6s-69" vertex="1">
          <mxGeometry y="30" width="410" height="30" as="geometry" />
        </mxCell>
        <mxCell id="Ai8oRI5nSIV9bpfUyO6s-71" value="FK" style="shape=partialRectangle;overflow=hidden;connectable=0;fillColor=none;top=0;left=0;bottom=0;right=0;fontStyle=1;rounded=0;" parent="Ai8oRI5nSIV9bpfUyO6s-70" vertex="1">
          <mxGeometry width="30" height="30" as="geometry">
            <mxRectangle width="30" height="30" as="alternateBounds" />
          </mxGeometry>
        </mxCell>
        <mxCell id="Ai8oRI5nSIV9bpfUyO6s-72" value="WarehouseID NUMBER(2)" style="shape=partialRectangle;overflow=hidden;connectable=0;fillColor=none;top=0;left=0;bottom=0;right=0;align=left;spacingLeft=6;fontStyle=0;rounded=0;" parent="Ai8oRI5nSIV9bpfUyO6s-70" vertex="1">
          <mxGeometry x="30" width="220" height="30" as="geometry">
            <mxRectangle width="220" height="30" as="alternateBounds" />
          </mxGeometry>
        </mxCell>
        <mxCell id="Ai8oRI5nSIV9bpfUyO6s-73" value="NOT NULL" style="shape=partialRectangle;overflow=hidden;connectable=0;fillColor=none;top=0;left=0;bottom=0;right=0;align=left;spacingLeft=6;fontStyle=0;rounded=0;" parent="Ai8oRI5nSIV9bpfUyO6s-70" vertex="1">
          <mxGeometry x="250" width="160" height="30" as="geometry">
            <mxRectangle width="160" height="30" as="alternateBounds" />
          </mxGeometry>
        </mxCell>
        <mxCell id="Ai8oRI5nSIV9bpfUyO6s-74" value="" style="shape=partialRectangle;collapsible=0;dropTarget=0;pointerEvents=0;fillColor=none;points=[[0,0.5],[1,0.5]];portConstraint=eastwest;top=0;left=0;right=0;bottom=1;rounded=0;" parent="Ai8oRI5nSIV9bpfUyO6s-69" vertex="1">
          <mxGeometry y="60" width="410" height="30" as="geometry" />
        </mxCell>
        <mxCell id="Ai8oRI5nSIV9bpfUyO6s-75" value="FK" style="shape=partialRectangle;overflow=hidden;connectable=0;fillColor=none;top=0;left=0;bottom=0;right=0;fontStyle=1;rounded=0;" parent="Ai8oRI5nSIV9bpfUyO6s-74" vertex="1">
          <mxGeometry width="30" height="30" as="geometry">
            <mxRectangle width="30" height="30" as="alternateBounds" />
          </mxGeometry>
        </mxCell>
        <mxCell id="Ai8oRI5nSIV9bpfUyO6s-76" value="StoreID NUMBER(2)" style="shape=partialRectangle;overflow=hidden;connectable=0;fillColor=none;top=0;left=0;bottom=0;right=0;align=left;spacingLeft=6;fontStyle=0;rounded=0;" parent="Ai8oRI5nSIV9bpfUyO6s-74" vertex="1">
          <mxGeometry x="30" width="220" height="30" as="geometry">
            <mxRectangle width="220" height="30" as="alternateBounds" />
          </mxGeometry>
        </mxCell>
        <mxCell id="Ai8oRI5nSIV9bpfUyO6s-77" value="NOT NULL" style="shape=partialRectangle;overflow=hidden;connectable=0;fillColor=none;top=0;left=0;bottom=0;right=0;align=left;spacingLeft=6;fontStyle=0;rounded=0;" parent="Ai8oRI5nSIV9bpfUyO6s-74" vertex="1">
          <mxGeometry x="250" width="160" height="30" as="geometry">
            <mxRectangle width="160" height="30" as="alternateBounds" />
          </mxGeometry>
        </mxCell>
        <mxCell id="Ai8oRI5nSIV9bpfUyO6s-82" value="" style="edgeStyle=entityRelationEdgeStyle;fontSize=12;html=1;endArrow=ERoneToMany;startArrow=ERmandOne;rounded=0;" parent="1" source="Ai8oRI5nSIV9bpfUyO6s-56" target="Ai8oRI5nSIV9bpfUyO6s-69" edge="1">
          <mxGeometry width="100" height="100" relative="1" as="geometry">
            <mxPoint x="980" y="-50" as="sourcePoint" />
            <mxPoint x="1080" y="-150" as="targetPoint" />
          </mxGeometry>
        </mxCell>
        <mxCell id="Ai8oRI5nSIV9bpfUyO6s-83" value="" style="edgeStyle=elbowEdgeStyle;fontSize=12;html=1;endArrow=ERoneToMany;startArrow=ERmandOne;rounded=0;" parent="1" source="aRpeAPTy4dod1xrnkWrR-1" target="Ai8oRI5nSIV9bpfUyO6s-69" edge="1">
          <mxGeometry width="100" height="100" relative="1" as="geometry">
            <mxPoint x="980" y="-50" as="sourcePoint" />
            <mxPoint x="1080" y="-150" as="targetPoint" />
          </mxGeometry>
        </mxCell>
        <mxCell id="6-cQnS8KgKNfApvFQq_u-14" value="Warehouse_products" style="shape=table;startSize=30;container=1;collapsible=1;childLayout=tableLayout;fixedRows=1;rowLines=0;fontStyle=1;align=center;resizeLast=1;rounded=0;" parent="1" vertex="1">
          <mxGeometry x="-20" y="-130" width="420" height="120" as="geometry" />
        </mxCell>
        <mxCell id="6-cQnS8KgKNfApvFQq_u-15" value="" style="shape=partialRectangle;collapsible=0;dropTarget=0;pointerEvents=0;fillColor=none;points=[[0,0.5],[1,0.5]];portConstraint=eastwest;top=0;left=0;right=0;bottom=1;rounded=0;" parent="6-cQnS8KgKNfApvFQq_u-14" vertex="1">
          <mxGeometry y="30" width="420" height="30" as="geometry" />
        </mxCell>
        <mxCell id="6-cQnS8KgKNfApvFQq_u-16" value="PK" style="shape=partialRectangle;overflow=hidden;connectable=0;fillColor=none;top=0;left=0;bottom=0;right=0;fontStyle=1;rounded=0;" parent="6-cQnS8KgKNfApvFQq_u-15" vertex="1">
          <mxGeometry width="30" height="30" as="geometry">
            <mxRectangle width="30" height="30" as="alternateBounds" />
          </mxGeometry>
        </mxCell>
        <mxCell id="6-cQnS8KgKNfApvFQq_u-17" value="WarehouseID NUMBER(2)" style="shape=partialRectangle;overflow=hidden;connectable=0;fillColor=none;top=0;left=0;bottom=0;right=0;align=left;spacingLeft=6;fontStyle=5;rounded=0;" parent="6-cQnS8KgKNfApvFQq_u-15" vertex="1">
          <mxGeometry x="30" width="220" height="30" as="geometry">
            <mxRectangle width="220" height="30" as="alternateBounds" />
          </mxGeometry>
        </mxCell>
        <mxCell id="6-cQnS8KgKNfApvFQq_u-18" value="" style="shape=partialRectangle;overflow=hidden;connectable=0;fillColor=none;top=0;left=0;bottom=0;right=0;align=left;spacingLeft=6;fontStyle=0;rounded=0;" parent="6-cQnS8KgKNfApvFQq_u-15" vertex="1">
          <mxGeometry x="250" width="170" height="30" as="geometry">
            <mxRectangle width="170" height="30" as="alternateBounds" />
          </mxGeometry>
        </mxCell>
        <mxCell id="6-cQnS8KgKNfApvFQq_u-19" value="" style="shape=partialRectangle;collapsible=0;dropTarget=0;pointerEvents=0;fillColor=none;points=[[0,0.5],[1,0.5]];portConstraint=eastwest;top=0;left=0;right=0;bottom=1;rounded=0;" parent="6-cQnS8KgKNfApvFQq_u-14" vertex="1">
          <mxGeometry y="60" width="420" height="30" as="geometry" />
        </mxCell>
        <mxCell id="6-cQnS8KgKNfApvFQq_u-20" value="" style="shape=partialRectangle;overflow=hidden;connectable=0;fillColor=none;top=0;left=0;bottom=0;right=0;fontStyle=1;rounded=0;" parent="6-cQnS8KgKNfApvFQq_u-19" vertex="1">
          <mxGeometry width="30" height="30" as="geometry">
            <mxRectangle width="30" height="30" as="alternateBounds" />
          </mxGeometry>
        </mxCell>
        <mxCell id="6-cQnS8KgKNfApvFQq_u-21" value="productId        NUMBER(2)" style="shape=partialRectangle;overflow=hidden;connectable=0;fillColor=none;top=0;left=0;bottom=0;right=0;align=left;spacingLeft=6;fontStyle=1;rounded=0;" parent="6-cQnS8KgKNfApvFQq_u-19" vertex="1">
          <mxGeometry x="30" width="220" height="30" as="geometry">
            <mxRectangle width="220" height="30" as="alternateBounds" />
          </mxGeometry>
        </mxCell>
        <mxCell id="6-cQnS8KgKNfApvFQq_u-22" value="" style="shape=partialRectangle;overflow=hidden;connectable=0;fillColor=none;top=0;left=0;bottom=0;right=0;align=left;spacingLeft=6;fontStyle=0;rounded=0;" parent="6-cQnS8KgKNfApvFQq_u-19" vertex="1">
          <mxGeometry x="250" width="170" height="30" as="geometry">
            <mxRectangle width="170" height="30" as="alternateBounds" />
          </mxGeometry>
        </mxCell>
        <mxCell id="6-cQnS8KgKNfApvFQq_u-38" value="" style="shape=partialRectangle;collapsible=0;dropTarget=0;pointerEvents=0;fillColor=none;points=[[0,0.5],[1,0.5]];portConstraint=eastwest;top=0;left=0;right=0;bottom=1;rounded=0;" parent="6-cQnS8KgKNfApvFQq_u-14" vertex="1">
          <mxGeometry y="90" width="420" height="30" as="geometry" />
        </mxCell>
        <mxCell id="6-cQnS8KgKNfApvFQq_u-39" value="" style="shape=partialRectangle;overflow=hidden;connectable=0;fillColor=none;top=0;left=0;bottom=0;right=0;fontStyle=1;rounded=0;" parent="6-cQnS8KgKNfApvFQq_u-38" vertex="1">
          <mxGeometry width="30" height="30" as="geometry">
            <mxRectangle width="30" height="30" as="alternateBounds" />
          </mxGeometry>
        </mxCell>
        <mxCell id="6-cQnS8KgKNfApvFQq_u-40" value="inStock             NUMBER(3)" style="shape=partialRectangle;overflow=hidden;connectable=0;fillColor=none;top=0;left=0;bottom=0;right=0;align=left;spacingLeft=6;fontStyle=1;rounded=0;" parent="6-cQnS8KgKNfApvFQq_u-38" vertex="1">
          <mxGeometry x="30" width="220" height="30" as="geometry">
            <mxRectangle width="220" height="30" as="alternateBounds" />
          </mxGeometry>
        </mxCell>
        <mxCell id="6-cQnS8KgKNfApvFQq_u-41" value="" style="shape=partialRectangle;overflow=hidden;connectable=0;fillColor=none;top=0;left=0;bottom=0;right=0;align=left;spacingLeft=6;fontStyle=0;rounded=0;" parent="6-cQnS8KgKNfApvFQq_u-38" vertex="1">
          <mxGeometry x="250" width="170" height="30" as="geometry">
            <mxRectangle width="170" height="30" as="alternateBounds" />
          </mxGeometry>
        </mxCell>
        <mxCell id="6-cQnS8KgKNfApvFQq_u-33" value="" style="edgeStyle=elbowEdgeStyle;fontSize=12;html=1;endArrow=ERoneToMany;startArrow=ERmandOne;rounded=0;verticalAlign=top;strokeColor=#000000;jumpStyle=none;fillColor=#76608a;exitX=-0.008;exitY=-0.276;exitDx=0;exitDy=0;exitPerimeter=0;" parent="1" source="aRpeAPTy4dod1xrnkWrR-11" target="6-cQnS8KgKNfApvFQq_u-19" edge="1">
          <mxGeometry width="100" height="100" relative="1" as="geometry">
            <mxPoint x="-249.99941176470585" y="78" as="sourcePoint" />
            <mxPoint x="-249.47" y="-100" as="targetPoint" />
            <Array as="points">
              <mxPoint x="-90" y="20" />
            </Array>
          </mxGeometry>
        </mxCell>
        <mxCell id="6-cQnS8KgKNfApvFQq_u-36" value="" style="edgeStyle=elbowEdgeStyle;fontSize=12;html=1;endArrow=ERoneToMany;startArrow=ERmandOne;rounded=0;verticalAlign=top;strokeColor=#000000;jumpStyle=none;fillColor=#76608a;elbow=vertical;entryX=1;entryY=0.5;entryDx=0;entryDy=0;" parent="1" source="Ai8oRI5nSIV9bpfUyO6s-57" target="6-cQnS8KgKNfApvFQq_u-15" edge="1">
          <mxGeometry width="100" height="100" relative="1" as="geometry">
            <mxPoint x="490" y="-200" as="sourcePoint" />
            <mxPoint x="665" y="-200" as="targetPoint" />
          </mxGeometry>
        </mxCell>
        <mxCell id="6-cQnS8KgKNfApvFQq_u-37" value="&lt;font style=&quot;font-size: 18px;&quot;&gt;Stock here&lt;/font&gt;" style="text;strokeColor=none;align=center;fillColor=none;html=1;verticalAlign=middle;whiteSpace=wrap;rounded=0;" parent="1" vertex="1">
          <mxGeometry x="-80" y="-170" width="60" height="30" as="geometry" />
        </mxCell>
        <mxCell id="6-cQnS8KgKNfApvFQq_u-42" value="Reviews_customers" style="shape=table;startSize=30;container=1;collapsible=1;childLayout=tableLayout;fixedRows=1;rowLines=0;fontStyle=1;align=center;resizeLast=1;rounded=0;" parent="1" vertex="1">
          <mxGeometry x="250" y="620" width="410" height="90" as="geometry" />
        </mxCell>
        <mxCell id="6-cQnS8KgKNfApvFQq_u-51" value="" style="shape=partialRectangle;collapsible=0;dropTarget=0;pointerEvents=0;fillColor=none;points=[[0,0.5],[1,0.5]];portConstraint=eastwest;top=0;left=0;right=0;bottom=0;rounded=0;" parent="6-cQnS8KgKNfApvFQq_u-42" vertex="1">
          <mxGeometry y="30" width="410" height="30" as="geometry" />
        </mxCell>
        <mxCell id="6-cQnS8KgKNfApvFQq_u-52" value="" style="shape=partialRectangle;overflow=hidden;connectable=0;fillColor=none;top=0;left=0;bottom=0;right=0;rounded=0;" parent="6-cQnS8KgKNfApvFQq_u-51" vertex="1">
          <mxGeometry width="30" height="30" as="geometry">
            <mxRectangle width="30" height="30" as="alternateBounds" />
          </mxGeometry>
        </mxCell>
        <mxCell id="6-cQnS8KgKNfApvFQq_u-53" value="ReviewID        NUMBER(2)" style="shape=partialRectangle;overflow=hidden;connectable=0;fillColor=none;top=0;left=0;bottom=0;right=0;align=left;spacingLeft=6;rounded=0;" parent="6-cQnS8KgKNfApvFQq_u-51" vertex="1">
          <mxGeometry x="30" width="220" height="30" as="geometry">
            <mxRectangle width="220" height="30" as="alternateBounds" />
          </mxGeometry>
        </mxCell>
        <mxCell id="6-cQnS8KgKNfApvFQq_u-54" value="NOT NULL" style="shape=partialRectangle;overflow=hidden;connectable=0;fillColor=none;top=0;left=0;bottom=0;right=0;align=left;spacingLeft=6;rounded=0;" parent="6-cQnS8KgKNfApvFQq_u-51" vertex="1">
          <mxGeometry x="250" width="160" height="30" as="geometry">
            <mxRectangle width="160" height="30" as="alternateBounds" />
          </mxGeometry>
        </mxCell>
        <mxCell id="6-cQnS8KgKNfApvFQq_u-55" value="" style="shape=partialRectangle;collapsible=0;dropTarget=0;pointerEvents=0;fillColor=none;points=[[0,0.5],[1,0.5]];portConstraint=eastwest;top=0;left=0;right=0;bottom=0;rounded=0;" parent="6-cQnS8KgKNfApvFQq_u-42" vertex="1">
          <mxGeometry y="60" width="410" height="30" as="geometry" />
        </mxCell>
        <mxCell id="6-cQnS8KgKNfApvFQq_u-56" value="" style="shape=partialRectangle;overflow=hidden;connectable=0;fillColor=none;top=0;left=0;bottom=0;right=0;rounded=0;" parent="6-cQnS8KgKNfApvFQq_u-55" vertex="1">
          <mxGeometry width="30" height="30" as="geometry">
            <mxRectangle width="30" height="30" as="alternateBounds" />
          </mxGeometry>
        </mxCell>
        <mxCell id="6-cQnS8KgKNfApvFQq_u-57" value="CustomerID    NUMBER(2)" style="shape=partialRectangle;overflow=hidden;connectable=0;fillColor=none;top=0;left=0;bottom=0;right=0;align=left;spacingLeft=6;rounded=0;" parent="6-cQnS8KgKNfApvFQq_u-55" vertex="1">
          <mxGeometry x="30" width="220" height="30" as="geometry">
            <mxRectangle width="220" height="30" as="alternateBounds" />
          </mxGeometry>
        </mxCell>
        <mxCell id="6-cQnS8KgKNfApvFQq_u-58" value="NOT NULL" style="shape=partialRectangle;overflow=hidden;connectable=0;fillColor=none;top=0;left=0;bottom=0;right=0;align=left;spacingLeft=6;rounded=0;" parent="6-cQnS8KgKNfApvFQq_u-55" vertex="1">
          <mxGeometry x="250" width="160" height="30" as="geometry">
            <mxRectangle width="160" height="30" as="alternateBounds" />
          </mxGeometry>
        </mxCell>
        <mxCell id="6-cQnS8KgKNfApvFQq_u-59" value="" style="edgeStyle=elbowEdgeStyle;fontSize=12;html=1;endArrow=ERoneToMany;startArrow=ERmandOne;rounded=0;verticalAlign=top;strokeColor=#000000;jumpStyle=none;fillColor=#76608a;elbow=vertical;" parent="1" source="Ai8oRI5nSIV9bpfUyO6s-5" target="6-cQnS8KgKNfApvFQq_u-42" edge="1">
          <mxGeometry width="100" height="100" relative="1" as="geometry">
            <mxPoint x="85" y="715" as="sourcePoint" />
            <mxPoint x="2.5" y="850.24" as="targetPoint" />
          </mxGeometry>
        </mxCell>
        <mxCell id="6-cQnS8KgKNfApvFQq_u-60" value="" style="edgeStyle=elbowEdgeStyle;fontSize=12;html=1;endArrow=ERoneToMany;startArrow=ERmandOne;rounded=0;verticalAlign=top;strokeColor=#000000;jumpStyle=none;fillColor=#76608a;" parent="1" source="s7tzDeLn5ftScS8IFM-b-23" target="6-cQnS8KgKNfApvFQq_u-55" edge="1">
          <mxGeometry width="100" height="100" relative="1" as="geometry">
            <mxPoint x="235" y="1180" as="sourcePoint" />
            <mxPoint x="184.41" y="1270" as="targetPoint" />
            <Array as="points" />
          </mxGeometry>
        </mxCell>
        <mxCell id="6-cQnS8KgKNfApvFQq_u-62" value="BRIDGER" style="text;html=1;align=center;verticalAlign=middle;resizable=0;points=[];autosize=1;strokeColor=none;fillColor=none;" parent="1" vertex="1">
          <mxGeometry x="30" y="-172" width="80" height="30" as="geometry" />
        </mxCell>
        <mxCell id="6-cQnS8KgKNfApvFQq_u-63" value="BRIDGER" style="text;html=1;align=center;verticalAlign=middle;resizable=0;points=[];autosize=1;strokeColor=none;fillColor=none;" parent="1" vertex="1">
          <mxGeometry x="340" y="580" width="80" height="30" as="geometry" />
        </mxCell>
        <mxCell id="6-cQnS8KgKNfApvFQq_u-64" value="BRIDGER" style="text;strokeColor=none;align=center;fillColor=none;html=1;verticalAlign=middle;whiteSpace=wrap;rounded=0;" parent="1" vertex="1">
          <mxGeometry x="730" width="60" height="30" as="geometry" />
        </mxCell>
        <mxCell id="6-cQnS8KgKNfApvFQq_u-66" value="BRIDGER" style="text;strokeColor=none;align=center;fillColor=none;html=1;verticalAlign=middle;whiteSpace=wrap;rounded=0;" parent="1" vertex="1">
          <mxGeometry x="1290" y="-160" width="60" height="30" as="geometry" />
        </mxCell>
        <mxCell id="6-cQnS8KgKNfApvFQq_u-91" value="&lt;font style=&quot;font-size: 48px; background-color: rgb(199, 215, 166);&quot;&gt;DATABASE FOR A SUPERSTORE &lt;/font&gt;" style="text;strokeColor=none;align=center;fillColor=none;html=1;verticalAlign=middle;whiteSpace=wrap;rounded=0;" parent="1" vertex="1">
          <mxGeometry x="490" y="-330" width="740" height="30" as="geometry" />
        </mxCell>
        <mxCell id="-Xn9VFNbD_UYYj7i1uQm-5" value="Orders_Products" style="shape=table;startSize=30;container=1;collapsible=1;childLayout=tableLayout;fixedRows=1;rowLines=0;fontStyle=1;align=center;resizeLast=1;rounded=0;" vertex="1" parent="1">
          <mxGeometry x="210" y="280" width="410" height="124" as="geometry" />
        </mxCell>
        <mxCell id="-Xn9VFNbD_UYYj7i1uQm-6" value="" style="shape=partialRectangle;collapsible=0;dropTarget=0;pointerEvents=0;fillColor=none;points=[[0,0.5],[1,0.5]];portConstraint=eastwest;top=0;left=0;right=0;bottom=1;rounded=0;" vertex="1" parent="-Xn9VFNbD_UYYj7i1uQm-5">
          <mxGeometry y="30" width="410" height="30" as="geometry" />
        </mxCell>
        <mxCell id="-Xn9VFNbD_UYYj7i1uQm-7" value="FK" style="shape=partialRectangle;overflow=hidden;connectable=0;fillColor=none;top=0;left=0;bottom=0;right=0;fontStyle=0;rounded=0;" vertex="1" parent="-Xn9VFNbD_UYYj7i1uQm-6">
          <mxGeometry width="30" height="30" as="geometry">
            <mxRectangle width="30" height="30" as="alternateBounds" />
          </mxGeometry>
        </mxCell>
        <mxCell id="-Xn9VFNbD_UYYj7i1uQm-8" value="ProductID NUMBER(2)" style="shape=partialRectangle;overflow=hidden;connectable=0;fillColor=none;top=0;left=0;bottom=0;right=0;align=left;spacingLeft=6;fontStyle=0;rounded=0;" vertex="1" parent="-Xn9VFNbD_UYYj7i1uQm-6">
          <mxGeometry x="30" width="220" height="30" as="geometry">
            <mxRectangle width="220" height="30" as="alternateBounds" />
          </mxGeometry>
        </mxCell>
        <mxCell id="-Xn9VFNbD_UYYj7i1uQm-9" value="NOT NULL" style="shape=partialRectangle;overflow=hidden;connectable=0;fillColor=none;top=0;left=0;bottom=0;right=0;align=left;spacingLeft=6;fontStyle=0;rounded=0;" vertex="1" parent="-Xn9VFNbD_UYYj7i1uQm-6">
          <mxGeometry x="250" width="160" height="30" as="geometry">
            <mxRectangle width="160" height="30" as="alternateBounds" />
          </mxGeometry>
        </mxCell>
        <mxCell id="-Xn9VFNbD_UYYj7i1uQm-10" value="" style="shape=partialRectangle;collapsible=0;dropTarget=0;pointerEvents=0;fillColor=none;points=[[0,0.5],[1,0.5]];portConstraint=eastwest;top=0;left=0;right=0;bottom=0;rounded=0;" vertex="1" parent="-Xn9VFNbD_UYYj7i1uQm-5">
          <mxGeometry y="60" width="410" height="32" as="geometry" />
        </mxCell>
        <mxCell id="-Xn9VFNbD_UYYj7i1uQm-11" value="FK" style="shape=partialRectangle;overflow=hidden;connectable=0;fillColor=none;top=0;left=0;bottom=0;right=0;rounded=0;" vertex="1" parent="-Xn9VFNbD_UYYj7i1uQm-10">
          <mxGeometry width="30" height="32" as="geometry">
            <mxRectangle width="30" height="32" as="alternateBounds" />
          </mxGeometry>
        </mxCell>
        <mxCell id="-Xn9VFNbD_UYYj7i1uQm-12" value="OrderID NUMBER(2)" style="shape=partialRectangle;overflow=hidden;connectable=0;fillColor=none;top=0;left=0;bottom=0;right=0;align=left;spacingLeft=6;rounded=0;" vertex="1" parent="-Xn9VFNbD_UYYj7i1uQm-10">
          <mxGeometry x="30" width="220" height="32" as="geometry">
            <mxRectangle width="220" height="32" as="alternateBounds" />
          </mxGeometry>
        </mxCell>
        <mxCell id="-Xn9VFNbD_UYYj7i1uQm-13" value="NOT NULL" style="shape=partialRectangle;overflow=hidden;connectable=0;fillColor=none;top=0;left=0;bottom=0;right=0;align=left;spacingLeft=6;rounded=0;" vertex="1" parent="-Xn9VFNbD_UYYj7i1uQm-10">
          <mxGeometry x="250" width="160" height="32" as="geometry">
            <mxRectangle width="160" height="32" as="alternateBounds" />
          </mxGeometry>
        </mxCell>
        <mxCell id="-Xn9VFNbD_UYYj7i1uQm-14" value="" style="shape=partialRectangle;collapsible=0;dropTarget=0;pointerEvents=0;fillColor=none;points=[[0,0.5],[1,0.5]];portConstraint=eastwest;top=0;left=0;right=0;bottom=0;rounded=0;" vertex="1" parent="-Xn9VFNbD_UYYj7i1uQm-5">
          <mxGeometry y="92" width="410" height="32" as="geometry" />
        </mxCell>
        <mxCell id="-Xn9VFNbD_UYYj7i1uQm-15" value="" style="shape=partialRectangle;overflow=hidden;connectable=0;fillColor=none;top=0;left=0;bottom=0;right=0;rounded=0;" vertex="1" parent="-Xn9VFNbD_UYYj7i1uQm-14">
          <mxGeometry width="30" height="32" as="geometry">
            <mxRectangle width="30" height="32" as="alternateBounds" />
          </mxGeometry>
        </mxCell>
        <mxCell id="-Xn9VFNbD_UYYj7i1uQm-16" value="quantity NUMBER(2)" style="shape=partialRectangle;overflow=hidden;connectable=0;fillColor=none;top=0;left=0;bottom=0;right=0;align=left;spacingLeft=6;rounded=0;" vertex="1" parent="-Xn9VFNbD_UYYj7i1uQm-14">
          <mxGeometry x="30" width="220" height="32" as="geometry">
            <mxRectangle width="220" height="32" as="alternateBounds" />
          </mxGeometry>
        </mxCell>
        <mxCell id="-Xn9VFNbD_UYYj7i1uQm-17" value="NOT NULL" style="shape=partialRectangle;overflow=hidden;connectable=0;fillColor=none;top=0;left=0;bottom=0;right=0;align=left;spacingLeft=6;rounded=0;" vertex="1" parent="-Xn9VFNbD_UYYj7i1uQm-14">
          <mxGeometry x="250" width="160" height="32" as="geometry">
            <mxRectangle width="160" height="32" as="alternateBounds" />
          </mxGeometry>
        </mxCell>
        <mxCell id="-Xn9VFNbD_UYYj7i1uQm-18" value="" style="edgeStyle=elbowEdgeStyle;fontSize=12;html=1;endArrow=ERoneToMany;startArrow=ERzeroToOne;rounded=0;" edge="1" parent="1" source="aRpeAPTy4dod1xrnkWrR-6" target="-Xn9VFNbD_UYYj7i1uQm-5">
          <mxGeometry width="100" height="100" relative="1" as="geometry">
            <mxPoint x="182" y="177" as="sourcePoint" />
            <mxPoint x="182" y="560" as="targetPoint" />
          </mxGeometry>
        </mxCell>
        <mxCell id="-Xn9VFNbD_UYYj7i1uQm-21" value="" style="edgeStyle=entityRelationEdgeStyle;fontSize=12;html=1;endArrow=ERzeroToOne;startArrow=ERmandOne;rounded=0;verticalAlign=top;strokeColor=none;jumpStyle=none;" edge="1" parent="1">
          <mxGeometry width="100" height="100" relative="1" as="geometry">
            <mxPoint x="470" y="115" as="sourcePoint" />
            <mxPoint x="615" y="115" as="targetPoint" />
            <Array as="points">
              <mxPoint x="-460" y="545" />
              <mxPoint x="300" y="280" />
              <mxPoint x="430" y="280" />
              <mxPoint x="160" y="450" />
            </Array>
          </mxGeometry>
        </mxCell>
        <mxCell id="-Xn9VFNbD_UYYj7i1uQm-22" value="" style="edgeStyle=elbowEdgeStyle;fontSize=12;html=1;endArrow=ERoneToMany;startArrow=ERmandOne;rounded=0;" edge="1" parent="1" source="aRpeAPTy4dod1xrnkWrR-19" target="-Xn9VFNbD_UYYj7i1uQm-5">
          <mxGeometry width="100" height="100" relative="1" as="geometry">
            <mxPoint x="470" y="115" as="sourcePoint" />
            <mxPoint x="615" y="115" as="targetPoint" />
          </mxGeometry>
        </mxCell>
        <mxCell id="-Xn9VFNbD_UYYj7i1uQm-23" value="BRIDGER" style="text;strokeColor=none;align=center;fillColor=none;html=1;verticalAlign=middle;whiteSpace=wrap;rounded=0;" vertex="1" parent="1">
          <mxGeometry x="500" y="250" width="60" height="30" as="geometry" />
        </mxCell>
        <mxCell id="-Xn9VFNbD_UYYj7i1uQm-24" value="" style="edgeStyle=elbowEdgeStyle;fontSize=12;html=1;endArrow=ERoneToMany;startArrow=ERzeroToOne;rounded=0;" edge="1" parent="1" source="s7tzDeLn5ftScS8IFM-b-14" target="aRpeAPTy4dod1xrnkWrR-19">
          <mxGeometry width="100" height="100" relative="1" as="geometry">
            <mxPoint x="345" y="177" as="sourcePoint" />
            <mxPoint x="400" y="790" as="targetPoint" />
          </mxGeometry>
        </mxCell>
      </root>
    </mxGraphModel>
  </diagram>
</mxfile>
